<svg xmlns="http://www.w3.org/2000/svg" viewBox="0 0 763.14 320.44"><defs><style>.a{fill:#517a3b;}.b{fill:#35322f;}.c{fill:#6d9c42;}.d{fill:#43711b;}</style></defs><path class="a" d="M36.69,70.64c0-1.66,0-3.33,0-5,20.11-.74,36.18-.13,15.88-21.9,17-8.12,19.91-23,11.43-38.91C77.4,14,78,30.39,65,43.7l7.83,5.5c-22.27,26.3-11.67,70.25,22,80.55,4,1.33,5.51,3.17,5.66,7.18s-2.31,6.09-5.38,6.74c-26.51,6.23-54.24,7.71-81.08,2.57-15.35-3.18-16.86-4.57-11.42-21.92,9,5.4,19.76,3.81,29.67,4,10.23,0,15-3.65,17.25-13.58,2-9,3.24-18.14,5.34-27.09C59.46,74.39,47.59,71.86,36.69,70.64Z" transform="translate(111.98 -0.17)"/><path class="b" d="M186.48,123.31c-.85-12.82-.2-25.22-.83-38,.39-13.49-18.74-12.6-20.88-1.73-2.19,11.32-.89,23.12-1,34.61.09,3.74-.78,5.63-5,5.18-4.78-1.39-14.38,3.23-14-4.74q.18-37,0-73.92c0-3.51.95-4.95,4.8-5,19.86-2.12,12.83,9.54,14.11,23.69,47.29-18.52,41.48,25,40.87,56.79C202.45,126.05,191.86,122.36,186.48,123.31Z" transform="translate(111.98 -0.17)"/><path class="b" d="M136.18,111.15c0,10.08,0,10.08-10,12.28-21.18,4.68-41.09-2.82-50.95-19.19C53.18,67,92.68,28.73,131,42.48c8.25.76,5.4,14.33,3.6,19.76C117.47,51.93,92.8,54.77,89.41,77.69c-5,21.59,20,38.51,38.74,27.32C136.25,98.74,136.51,103.45,136.18,111.15Z" transform="translate(111.98 -0.17)"/><path class="b" d="M231,97c6.56,26.75,33.06,2.47,37.18,12.43,4.88,10.27,5,11-6.26,12.92a88,88,0,0,1-24.22,1.1c-27.34-2.15-34.13-42.3-13.82-57.95,21.43-16.4,53.84-.29,50.31,28.21-.32,3-1.93,3.32-4.35,3.31C256.82,97,244.13,97,231,97Zm25.51-11.19c-.45-16.94-25.89-16.32-25.56,0Z" transform="translate(111.98 -0.17)"/><path class="b" d="M304.64,126.51c-4.61-2.39-29-2.67-23.44-10.53,3.66-8.29,3.62-9.13,12.84-6.78,8.37.85,18.69,4.28,24.71-3.62-5.72-7.53-15.35-5.87-23.54-8.19-20.79-3.48-20.44-29.92-2.21-35.9,12.73-4.82,25.43-3.66,37.95,1.15,3.24,1.08,3.09,3.19,1.66,5.84-3.85,8.83-3.75,8.4-12.9,6.24-7.53-1-16.66-3.56-21.85,3.83,5,7.57,14.19,6,21.93,8.18,13.37,2.92,19.12,10.36,17,21.73C333.74,122.79,317.11,125.28,304.64,126.51Z" transform="translate(111.98 -0.17)"/><path class="b" d="M363.12,125.31C358.79,123,335,122.69,340,115.17c3.85-8.15,3.58-9.08,12.56-6.8,6.2,1.3,12.79,1.16,19.18.9,1.7-.07,3.29-3,4.93-4.54-5.85-7.55-16.53-5.3-24.76-8.32-7.23-1.9-12.47-6.12-13.28-14.22C336.78,57,370.87,55.87,388,62.92c4.62,1.35,2.93,4.69,1.24,7.86-3.21,6.91-3.09,6.44-10.28,4.61C371,74,361.94,71.16,356.37,79c6.78,8.11,18.48,5.77,27.42,9.72,12.38,4.47,14.71,20,4.65,28.53C381.3,123.32,372.3,122.94,363.12,125.31Z" transform="translate(111.98 -0.17)"/><path class="c" d="M64,4.83c8.48,15.87,5.51,30.79-11.43,38.91,20.33,21.79,4.18,21.16-15.88,21.9-5.57-1.38-15.91,2.83-17.24-4.82-.79-2.91-1.84-5.62,1.74-7.74C26,50.21,30.56,47,35.31,43.85,11.06,21.53,39.12-12.47,63.88,5Z" transform="translate(111.98 -0.17)"/><path class="c" d="M36.69,70.64c10.9,1.24,22.77,3.73,18.21,17-2.1,9-3.35,18.1-5.34,27.09-2.2,9.93-7,13.62-17.25,13.58-9.91-.14-20.64,1.45-29.67-4C10.69,100.71,31.27,103,36.69,70.64Z" transform="translate(111.98 -0.17)"/><path class="b" d="M533.63,123.6c-1.58-9.9,5.12-32.37-7.34-34.18-4.3-.46-7.45,1.06-7.75,5.61-.54,9.58-.72,18.79-.72,28.47h-7.71c-1.61-9.15,5.25-34.28-8.23-34.15-4.69,0-6.77,2.88-7,6.81-.44,7.09-.32,14.22-.37,21.34-.05,7-.43,7.27-7.86,5.56,0-12.44-.06-25,.05-37.53,0-2.86,3.39-3.8,6.85-2.26,8.22.87,12.93-4.42,20.7,4.26,6.76-8.26,24.86-6.73,26.09,5.08a202.27,202.27,0,0,1,.94,28.7C541.09,125.9,536.77,123.19,533.63,123.6Z" transform="translate(111.98 -0.17)"/><path class="b" d="M481.82,103.3c.71,27.82-41.24,27.71-40.35-.2C440.91,75.65,482.63,75.79,481.82,103.3ZM461.64,89.1c-17.19-.11-17,28.94.27,28.39C478.75,117.58,478.44,88.71,461.64,89.1Z" transform="translate(111.98 -0.17)"/><path class="b" d="M438,113.54c1.2,8.23.32,9.45-7.18,10.6-8.75,1.35-17.32-2-21.2-8.88C399.51,99.45,413,77.74,432.45,82.83c6.21,1.42,6.94,2.77,5.28,10.48C409,72.88,404.23,132.66,438,113.54Z" transform="translate(111.98 -0.17)"/><path class="b" d="M401.1,113.41c5,5.19,4.58,6.37-.75,10.88-5.72-4.05-6.22-5.2-1.66-10.79Z" transform="translate(111.98 -0.17)"/><path class="a" d="M63.88,5,62.67,3.91Z" transform="translate(111.98 -0.17)"/><path class="d" d="M-62.83,293.55c-3,1.5-9.57,3.51-18,3.51-18.88,0-31.17-12.4-31.17-30.95s13.19-32.19,33.63-32.19a39.2,39.2,0,0,1,15.78,3.13l-2.59,8.52c-2.71-1.5-7-2.88-13.19-2.88-14.36,0-22.12,10.27-22.12,22.92,0,14,9.31,22.68,21.73,22.68a33.14,33.14,0,0,0,14-3Z" transform="translate(111.98 -0.17)"/><path class="d" d="M-49.51,206.86h11.38v37.83h.26a20.76,20.76,0,0,1,8.15-7.76,24,24,0,0,1,11.64-3.14c8.41,0,21.86,5,21.86,25.94V295.8H-7.6V261c0-9.77-3.75-18-14.49-18a16.29,16.29,0,0,0-15.26,11,12.91,12.91,0,0,0-.78,5.26V295.8H-49.51Z" transform="translate(111.98 -0.17)"/><path class="d" d="M28.62,267.49c.25,14.91,10.09,21.05,21.47,21.05,8.15,0,13.06-1.38,17.33-3.13l1.94,7.89c-4,1.75-10.86,3.76-20.82,3.76-19.28,0-30.79-12.28-30.79-30.57s11.12-32.7,29.36-32.7c20.44,0,25.87,17.42,25.87,28.57a39.94,39.94,0,0,1-.39,5.13ZM62,259.6c.13-7-3-17.91-15.78-17.91-11.51,0-16.56,10.27-17.46,17.91Z" transform="translate(111.98 -0.17)"/><path class="d" d="M85.53,284.53a30.5,30.5,0,0,0,15,4.39c8.28,0,12.16-4,12.16-9,0-5.26-3.23-8.14-11.64-11.14-11.25-3.89-16.56-9.9-16.56-17.17,0-9.77,8.15-17.79,21.6-17.79a32.14,32.14,0,0,1,15.4,3.76l-2.85,8a25,25,0,0,0-12.8-3.51c-6.73,0-10.48,3.76-10.48,8.27,0,5,3.75,7.27,11.9,10.27,10.86,4,16.43,9.27,16.43,18.29,0,10.65-8.54,18.17-23.42,18.17-6.85,0-13.19-1.63-17.59-4.14Z" transform="translate(111.98 -0.17)"/><path class="d" d="M136.75,284.53a30.5,30.5,0,0,0,15,4.39c8.28,0,12.16-4,12.16-9,0-5.26-3.23-8.14-11.64-11.14-11.25-3.89-16.56-9.9-16.56-17.17,0-9.77,8.15-17.79,21.6-17.79a32.14,32.14,0,0,1,15.4,3.76l-2.85,8a25,25,0,0,0-12.8-3.51c-6.73,0-10.48,3.76-10.48,8.27,0,5,3.75,7.27,11.9,10.27,10.86,4,16.43,9.27,16.43,18.29,0,10.65-8.54,18.17-23.42,18.17-6.85,0-13.19-1.63-17.59-4.14Z" transform="translate(111.98 -0.17)"/><path class="d" d="M215.91,257.85V266H184v-8.14Z" transform="translate(111.98 -0.17)"/><path class="d" d="M233.11,235.17,241.39,266c1.81,6.76,3.49,13,4.66,19.29h.38c1.43-6.14,3.5-12.65,5.57-19.17l10.21-30.94h9.58l9.7,30.32c2.33,7.26,4.14,13.65,5.56,19.79h.39a176.15,176.15,0,0,1,4.78-19.67l8.93-30.44H312.4L292.22,295.8H281.88l-9.58-28.93A196.63,196.63,0,0,1,266.74,247h-.26a174.35,174.35,0,0,1-5.69,20L250.7,295.8H240.35l-18.88-60.63Z" transform="translate(111.98 -0.17)"/><path class="d" d="M328.83,267.49c.26,14.91,10.09,21.05,21.47,21.05,8.15,0,13.06-1.38,17.33-3.13l1.94,7.89c-4,1.75-10.86,3.76-20.82,3.76-19.28,0-30.79-12.28-30.79-30.57s11.13-32.7,29.36-32.7c20.44,0,25.87,17.42,25.87,28.57a40.33,40.33,0,0,1-.38,5.13Zm33.37-7.89c.13-7-3-17.91-15.78-17.91-11.51,0-16.56,10.27-17.46,17.91Z" transform="translate(111.98 -0.17)"/><path class="d" d="M386.77,295.8c.26-4.13.52-10.27.52-15.65V206.86h11.25v38.08h.26c4-6.76,11.26-11.15,21.34-11.15,15.53,0,26.52,12.53,26.39,31,0,21.67-14.1,32.44-28.07,32.44-9,0-16.29-3.38-20.95-11.4h-.39l-.52,10Zm11.77-24.3a19.9,19.9,0,0,0,.52,4,17.47,17.47,0,0,0,17.07,12.9c11.91,0,19-9.39,19-23.3,0-12.15-6.47-22.55-18.63-22.55a18,18,0,0,0-17.33,13.53,21.1,21.1,0,0,0-.65,4.51Z" transform="translate(111.98 -0.17)"/><path class="d" d="M489.21,257.85V266H457.26v-8.14Z" transform="translate(111.98 -0.17)"/><path class="d" d="M537.2,295.8l-.91-7.64h-.38c-3.5,4.76-10.22,9-19.15,9-12.67,0-19.14-8.64-19.14-17.41,0-14.66,13.45-22.68,37.64-22.55V256c0-5-1.42-14-14.23-14a31.92,31.92,0,0,0-16.3,4.51l-2.58-7.27c5.17-3.26,12.67-5.39,20.56-5.39,19.15,0,23.8,12.66,23.8,24.81v22.67a82.29,82.29,0,0,0,1,14.53Zm-1.68-30.94c-12.42-.25-26.52,1.88-26.52,13.66,0,7.14,4.92,10.52,10.74,10.52,8.15,0,13.32-5,15.13-10.15a11.09,11.09,0,0,0,.65-3.51Z" transform="translate(111.98 -0.17)"/><path class="d" d="M564.88,255c0-7.76-.26-14-.52-19.79h10.22l.52,10.4h.26c4.65-7.39,12-11.78,22.24-11.78,15.14,0,26.52,12.41,26.52,30.82,0,21.8-13.71,32.57-28.46,32.57-8.27,0-15.52-3.51-19.27-9.52h-.26v32.95H564.88Zm11.25,16.17a24.07,24.07,0,0,0,.52,4.51,17.47,17.47,0,0,0,17.07,12.9c12,0,19-9.52,19-23.43,0-12.15-6.6-22.55-18.63-22.55a18,18,0,0,0-17.2,13.66,17.25,17.25,0,0,0-.78,4.51Z" transform="translate(111.98 -0.17)"/><path class="d" d="M651.15,218.13c.13,3.76-2.72,6.77-7.24,6.77a6.67,6.67,0,0,1-6.86-6.77,6.83,6.83,0,0,1,7.12-6.89A6.65,6.65,0,0,1,651.15,218.13ZM638.47,295.8V235.17h11.39V295.8Z" transform="translate(111.98 -0.17)"/></svg>